<?xml version="1.0" encoding="UTF-8" standalone="no"?>
<svg id="svg2" xmlns:rdf="http://www.w3.org/1999/02/22-rdf-syntax-ns#" xmlns="http://www.w3.org/2000/svg" version="1.1" xmlns:cc="http://creativecommons.org/ns#" xmlns:xlink="http://www.w3.org/1999/xlink" viewBox="0 0 42 42" xmlns:dc="http://purl.org/dc/elements/1.1/">
 <defs id="defs4">
  <path id="bougie-a" d="m16.55 37.436c0 0.576-0.202 0.713-0.713 0.605l-5.448-1.044c-0.142-0.01-0.273-0.077-0.365-0.185-0.0914-0.108-0.1362-0.248-0.124-0.389v-9.467c0-0.246 0.888-0.273 1.028-0.165 0.261 0.22 0.174 1.014 0.348 1.014 0.228 0 0.825-0.956 1.083-0.956 0.347 0.056 0.69 0.138 1.025 0.245 0.114-0.055 0.114-0.493 0.257-0.603 0.36-0.116 0.736-0.171 1.114-0.164 0.513-0.027 1.456-0.109 1.456-0.109 0.371 0 0.343 0.247 0.343 0.767v10.452l-0.004-0.001zm-6.65-20.551c-0.0027-0.17 0.0677-0.333 0.193-0.448 0.126-0.115 0.295-0.17 0.464-0.153h5.051c0.237-0.063 0.489-0.001 0.669 0.165 0.181 0.166 0.263 0.413 0.219 0.654l0.025 8.376c0 0.272-2.969 0.356-3.082 0.164-0.041-0.26-0.129-0.51-0.261-0.738-0.23 0.259-0.5 0.48-0.8 0.654-0.294-0.137-0.578-0.292-0.852-0.464 0.001 0.314-0.039 0.626-0.117 0.93-0.471 0.223-1.005 0.281-1.5133 0.165v-9.302l0.0043-0.003zm0.773-6.9232c0-3.7765 5.824-5.9376 6.217-7.8537 0.375 0.4282 0.551 0.9946 0.485 1.5596 0 2.2994-4.163 6.1584-4.163 8.9493 0 0.301 0.028 0.383 0.028 0.575 0 0.272-0.113 0.327-0.174 0.327-0.687 0-2.397-1.286-2.397-3.5572h0.004zm7.813 8.8952c0.136 0.017 0.27 0.044 0.401 0.08 0.248 0.016 0.444 0.217 0.454 0.466-0.046 0.183-0.026 0.377 0.057 0.547 0.094 0.023 0.192-0.009 0.255-0.082 1.056-0.739 1.315 0.575 1.543 0.575 0.199 0 0.174-0.903 0.456-0.903 0.23-0.082 2.425 0.931 2.425 1.588-0.098 0.106-0.203 0.206-0.314 0.299-0.026 0.193 0.516 0.275 0.428 0.631-0.027 0.219-0.542 0.492-0.401 0.628 0.303 0.03 0.608-0.017 0.888-0.136 0.143 0 0.169 0.22 0.169 0.301 0 1.204-2.936 2.109-3.596 1.835-0.131-0.219-0.244-0.448-0.34-0.684-0.175 0.232-0.376 0.443-0.599 0.629-0.342 0.055-0.856-0.356-0.999-0.248-0.142 0.108 0.34 0.877-0.599 0.877-0.228 0-0.228-0.248-0.228-0.435v-5.968zm0-3.586c0.023-0.421-0.291-0.784-0.711-0.822h-3.084c-0.212 0.049-0.435-0.01-0.595-0.158-0.159-0.148-0.236-0.365-0.204-0.581 0-3.639 5.506-4.242 5.506-9.0034 0-2.0795-1.368-3.4774-2.967-4.7066-0.048 0.14259-0.048 0.2973 0 0.43989 0 2.2159-8.5852 3.3652-8.5852 8.4821 0 4.459 4.6202 4.653 4.6202 5.336-0.062 0.116-0.182 0.19-0.314 0.191h-3.5386c-0.4199 0.038-0.7347 0.401-0.712 0.822v2.736c-0.3477 0.11-0.7685-0.383-0.9997-0.383-0.0569 0.326-0.1424 0.646-0.2556 0.956-0.1739 0.087-3.3904 1.177-3.6799 1.205-0.4555 0.082-0.3425-0.683-0.5981-0.683-0.2287 0-0.2287 0.765-0.8007 0.765-0.3399 0-0.62678-0.301-0.88236-0.301-0.17387 0 0.37206 0.63 0.37206 0.822 0 0.521-1.0571 0.71-1.0571 1.066 5.6843e-14 0.192 0.99887-0.082 1.1414-0.082 0.513 0 0.4564 0.574 0.6547 0.574 0.2058-0.229 0.3788-0.487 0.5137-0.765 0.3107-0.064 0.6344-0.016 0.9128 0.136 0.2869 0-0.2269-0.655 0.0296-0.765 1.2045-0.522 2.4433-0.962 3.7077-1.315 0.1238 0.19 0.2575 0.373 0.4008 0.548 0.2269 0.11 0.5694-0.766 0.5694-0.219v6.706c-0.5369 0.249-1.121 0.379-1.7126 0.382-0.2269 0-0.1121-0.711-0.2564-0.711-0.2278 0-0.4591 0.603-0.7972 0.603-0.3139 0-0.772-0.739-1.0858-0.739-0.1982 0 0.3703 0.93 0.0269 1.094-1.3092 0.63-3.3904 1.23-3.3904 3.229 0.07216 0.342 0.11923 0.689 0.14083 1.038-0.20188 0.225-0.37478 0.474-0.51465 0.742 0 0.162 0.85802 0.109 1.031 0.356 0.0401 0.268 0.1482 0.522 0.3138 0.737 0.1418 0 0.5112-0.465 0.8268-0.301 0.9989 0.576 2.7384 1.204 3.5373 1.616 0.0989 0.246 0.1655 0.503 0.1982 0.766 0.2269 0.109 0.6842-0.574 1.3988-0.192 0.185 0.107 0.295 0.308 0.2852 0.521v2.216c-0.0216 0.134 0.0118 0.27 0.0925 0.378 0.0808 0.109 0.202 0.18 0.336 0.197l8.5006 1.67c0.292 0.052 0.587 0.089 0.884 0.109 0.316 0 0.601-0.053 0.601-0.656l0.027-5.145c-0.004-0.034 0.007-0.067 0.029-0.093 0.022-0.025 0.053-0.041 0.086-0.043 0.54 0 0.456 1.391 0.571 1.391 0.225 0 0.369-0.929 0.657-0.929 0.398 0 0.656 0.355 0.826 0.273 0.033-0.268 0.004-0.54-0.087-0.794 0-0.248 0.74-0.356 1.651-0.683 0.555-0.236 1.128-0.429 1.713-0.575 0.197 0 0.343 0.521 0.513 0.521 0.142 0 0.174-0.684 0.486-0.684 0.312 0.128 0.637 0.22 0.97 0.274 0.113-0.082-0.288-0.601 0.029-0.82 0.297-0.142 0.559-0.348 0.767-0.603-0.364-0.078-0.737-0.114-1.11-0.107-0.201-0.056-0.427-0.66-0.574-0.66-0.166 0-0.166 0.609-0.426 0.796-0.229 0.161-0.798-0.576-1.054-0.576 0.021 0.334 0.079 0.664 0.174 0.985 0 0.435-2.765 1.288-3.138 1.288-0.573 0-0.601-0.684-0.716-0.684-0.169 0-0.142 0.821-0.853 0.821-0.099 0.023-0.203-0.002-0.281-0.066-0.078-0.065-0.123-0.162-0.12-0.263v-6.568c-0.021-0.125 0.015-0.252 0.098-0.348 0.083-0.095 0.204-0.149 0.33-0.145 0.512 0 0.512 0.986 0.684 0.986 0.315 0 0.486-1.013 1.084-1.013 0.457 0 0.827 0.602 1.114 0.602 0.198 0-0.341-0.629-0.341-0.93s2.824-0.192 3.907-2.025c0.195-0.447 0.338-0.913 0.429-1.391 0.167-0.274 0.796-0.221 0.796-0.412-0.198-0.123-0.409-0.224-0.629-0.3-0.339-0.192-0.225-1.177-0.396-1.177-0.261 0-0.513 0.684-0.771 0.383-0.951-0.804-2.031-1.443-3.193-1.889-0.317-0.109 0.225-1.014 0.087-1.095s-0.516 0.549-1.058 0.435c-0.429-0.082-0.228-0.822-0.457-0.822-0.113 0-0.544 1.044-0.855 0.957-0.342-0.083-0.827-0.165-0.827-0.165v-2.764l-0.002 0.001zm-10.527 17.787c-0.0127 0.279-0.2333 0.504-0.512 0.522-0.4573 0-0.7442-0.877-0.8581-0.849-0.1426 0.027 0.0287 0.738-0.1426 0.849-1.1825-0.339-2.3208-0.816-3.3912-1.422-0.0574-0.216-0.0574-0.442 0-0.657-0.2007-0.114-0.4251-0.18-0.6555-0.192 0.0168-0.238 0.0075-0.477-0.0278-0.713-0.1452-0.081-0.4573 0.493-0.6581 0.218-0.0922-0.166-0.1314-0.356-0.1122-0.544 0-1.673 1.8543-2.354 3.1088-2.767 0.5103-0.163 0.3408 0.466 0.5103 0.493 0.1615-0.086 0.3151-0.187 0.459-0.301 0.3116 0.114 0.6389 0.178 0.9702 0.192 0.1139-0.082-0.3399-0.493-0.2-0.656 0.1739-0.138 1.5127-0.356 1.5127-0.111v5.938h-0.0035z"/>
 </defs>
 <g id="g7" transform="translate(8 1)">
  <mask id="bougie-b" fill="#fff">
   <use id="use10" xlink:href="#bougie-a"/>
  </mask>
  <use id="use12" xlink:href="#bougie-a" fill="#ffffff"/>
  <g id="g14" mask="url(#bougie-b)" fill="#fff">
   <rect id="rect16" transform="translate(-8 -1)" height="42" width="42" fill="#fff"/>
  </g>
 </g>
</svg>
