<svg xmlns="http://www.w3.org/2000/svg" version="1" width="95" height="155" viewBox="0 0 192.756 192.756"><path d="M109.51-50.725l-1.32 1.978-1.391 1.943-1.495 1.84-1.563 1.806-1.67 1.735-1.704 1.666-1.81 1.632-1.842 1.563L94.836-35l-1.913 1.493-3.86 2.951-7.825 5.763-3.755 2.882-1.845 1.492-1.773 1.493L72.16-17.4l-1.635 1.528-1.563 1.599-1.462 1.667-1.357 1.663-1.286 1.77-1.147 1.806-1.009 1.876-.904 1.943-.382 1.007-.348 1.008-.348 1.075L60.44.586l-.242 1.11-.174 1.112-.28 2.083-.139 1.978.037 1.91.14 1.84.276 1.736.382 1.667.522 1.631.627 1.562.73 1.492.835 1.423.904 1.388.975 1.355 1.077 1.318 1.149 1.25 1.18 1.25 1.252 1.216 1.32 1.18 1.358 1.18 2.817 2.29 2.921 2.256 2.957 2.291 2.956 2.326 2.922 2.43 1.391 1.249 1.391 1.284 1.355 1.32 1.323 1.352-40.03-.034v34.748l-1.773.902-1.982-4.06-3.791 2.117 1.705 2.22-3.236.454-3.06.52-2.852.592-2.678.658-2.469.765-2.297.797-2.052.902-.938.455-.904.52-2.99-3.887-2.749 1.734 1.982 4.652-.662.382-.626.38-.59.417-.488.454-.487.484-.417.485-.348.52-.313.556-.28.555-.208.591-.14.624-.102.627-.037.658v.695l.037.728.103.729 3.93-1.734 2.712-3.647 5.32 3.3 2.643-1.978-2.503-2.846 1.74-.835 1.878-.798 1.913-.694 2.018-.628 2.052-.591 2.156-.485 2.226-.413 2.295-.352-1.879 3.23 2.506 1.39 3.72-3.748 1.948 1.873-.035 46.241-3.235.206-1.53.174-1.495.21-1.496.244-1.497.31-1.494.382-1.462.45-1.217-2.985-3.478 1.597 1.043 2.78-1.982.484-1.878.52-1.808.555-1.739.592-1.634.658-1.601.658-1.495.728-1.425.8-1.357.797-1.286.868-1.183.902-1.112.939-1.043.972-.939 1.042-.87 1.041-.8 1.112-.696 1.18-.626 1.182-.522 1.25-.453 1.285-.382 1.352-.277 1.389-.21 1.423-.104 1.46v1.525l.07 1.564.139 1.597.277 1.633.313 1.7.451 1.733.522 1.806.59 1.841-3.304 5.345 2.156 1.911 3.722-3.891 1.563 1.356 1.565 1.286 1.602 1.25 1.634 1.214 1.636 1.143 1.668 1.076 1.67 1.045 1.705.969 1.739.973 1.704.868 1.774.868 1.739.797 1.773.765 1.81.728 1.81.658 1.842.662-3.06 4.683 1.948 1.738 4.173-3.785 6.087 3.056-.071 23.397 80.267 18.123v-40.963l2.572-.173-.243 2.117 2.297.969 3.304-3.052 5.634 3.193 1.32-1.77-.695-2.642 18.362-4.061-.21 1.944 2.956.454 1.879-2.295 2.713-.137 3.13 2.638 2.261-2.428-2.819-3.785 1.289-.484 1.217-.521 1.114-.591.973-.624.904-.662.764-.694.695-.73.593-.76-7.06-.52-.418.379-.453.381-.972.658-1.078.525-1.147.45-1.842-4.166-3.686 1.494.973 3.23-26.641 3.887-.348-2.883-3.652.765.036 2.673-3.722.454-.105-67.414 6.191-1.046-1.842 3.024-.069.137v.21l.172.347.314.38.453.35.487.241.485.141h.417l.174-.07.14-.107 2.818-3.851 3.963 3.403.245.173.279.103.311.037.28-.067.31-.07.28-.174.279-.174.245-.244.208-.24.174-.28.14-.277.102-.311.037-.315-.037-.277-.103-.28-.174-.24-2.958-3.161 2.748-.555 2.677-.624 2.572-.728 2.471-.832 2.364-.902 2.297-1.01 2.156-1.075 2.085-1.179 1.947-1.286 1.844-1.352 1.739-1.494 1.6-1.56 1.494-1.667 1.391-1.77.627-.902.625-.939.592-.969.556-1.009 2.957 1.357.137.036h.14l.347-.174.348-.244.312-.381.244-.414.174-.418.034-.381-.034-.174-.07-.137-3.129-3.785 2.99-3.61.07-.138.036-.137-.069-.351-.174-.311-.313-.277-.382-.244-.38-.173-.419-.037-.311.107-1.426.797-.627-1.388-.8-1.353-.94-1.285-1.079-1.215-1.286-1.183-1.39-1.108-1.6-1.076-1.74-.973-1.91-.938-2.087-.903-2.26-.797-2.435-.765-2.607-.694-2.782-.628-2.922-.555-3.13-.484.904-2.081V79.034l-.174-.24-.28-.244-.381-.174-.417-.137-.417-.036-.382.036-.242.173-2.645 2.536-1.879-.21-.8-3.438-.106-.21-.105-.137-.174-.137-.208-.107-.524-.103h-.554l-.592.137-.522.174-.382.28-.138.174-.068.21-.801 2.638-3.618-6.075 5.286-17.393.243-1.041.21-.971.105-.937.035-.902-.07-.868-.173-.799-.28-.729-.416-.66-.521-.625-.662-.555-.8-.453-.939-.381-1.114-.313-1.22-.242-1.425-.14-1.563-.034-27.682-.036.87-2.777.974-2.604 1.043-2.499 1.113-2.361 1.148-2.257 1.181-2.117 1.252-2.014 1.251-1.944 1.323-1.804 1.32-1.77 1.357-1.668 1.357-1.596 1.355-1.528 1.39-1.457 2.747-2.778 5.217-5.137 2.434-2.498 1.147-1.215 1.078-1.25 1.009-1.251.972-1.25.87-1.32.835-1.318.728-1.388.629-1.425.554-1.457.453-1.528.279-1.458.174-1.423.036-1.459-.105-1.457-.208-1.457-.314-1.46-.418-1.457-.522-1.457-.627-1.494-.695-1.46-.801-1.456-.87-1.458-.94-1.459-1.007-1.491-1.078-1.46-1.148-1.457-2.4-2.88-2.573-2.882-2.713-2.846-2.783-2.812-5.599-5.486-5.383-5.31zm1.982 6.596l-1.009 1.46-1.009 1.422-1.043 1.32-1.044 1.25-1.078 1.214-1.077 1.147-2.261 2.186-2.26 2.117-2.261 2.083-2.259 2.117-2.228 2.257-1.113 1.18-1.077 1.25-1.078 1.318-1.043 1.354-1.01 1.458-1.009 1.562-.94 1.633-.938 1.735-.904 1.876-.87 1.978-.8 2.117-.765 2.256-.73 2.43-.695 2.534-.627 2.743-.556 2.914-.419 2.396-.242 2.256-.174 2.118-.037 2.014.071 1.91.14 1.77.242 1.667.348 1.596.419 1.492.485 1.388.556 1.355.59 1.25.696 1.214.696 1.145.764 1.075.8 1.076 1.706 2.015 1.739 1.909 1.807 1.875 1.774 1.91 1.67 1.977.835 1.008.764 1.075.73 1.113.662 1.144.626 1.25.59 1.283 6.09-12.74 6.05-12.603 3.06-6.352 3.026-6.456 3.061-6.63 3.094-6.77.487-1.215.417-1.215.382-1.25.312-1.283.244-1.32.209-1.353.14-1.354.104-1.389.035-1.354-.035-1.423-.07-1.389-.138-1.423-.174-1.388-.21-1.423-.28-1.389-.347-1.389-.382-1.354-.417-1.352-.487-1.355-.522-1.32-.59-1.283-.627-1.25-.661-1.215-.696-1.18-.764-1.145-.801-1.11-.835-1.076-.904-1.007-.904-.936-.973-.903-1.009-.833-1.039-.765zM52.37 143.638v47.038l-3.86 1.387-.661-.31-.627-.382-.556-.418-.487-.484-.488-.555-.418-.555-.348-.658-.313-.658-3.444 1.733-1.6-.417-1.53-.485-1.497-.484-1.46-.592-1.46-.591-1.39-.694-1.358-.695-1.354-.797-1.286-.8-1.288-.901-1.218-.903-1.183-1.005-1.18-1.041-1.115-1.076-1.078-1.147-1.077-1.215 2.052-3.887-1.46-.591-2.155 1.142-.556-1.25-.522-1.249-.382-1.178-.348-1.18-.245-1.146-.174-1.146-.068-1.076v-1.076l.068-1.041.14-1.005.208-1.005.28-.939.347-.939.419-.902.487-.868.556-.831.59-.836.66-.76.732-.766.764-.728.835-.695.904-.662.938-.623.975-.592 1.009-.555 1.078-.55 1.112-.49 1.183-.484 1.183-.417 1.217-.414 2.608-.699.174 1.877 2.156.868 2.713-3.02 1.877-.035 3.757 2.498 1.6-2.464-2.019-2.325.801-.485.904-.381.904-.244.973-.174.972-.067 1.01-.036 2.02.131zm86.354-53.214l4.592-2.816 5.91 2.535.419-3.33 3.061.831 2.92.903 2.748.902 2.572.973 2.364.969 2.121 1.041 1.913 1.076.835.555.765.591.697.592.627.587.554.628.487.658.383.658.311.662.21.694.106.694.034.729-.069.765-.14.76-.276.8-.348.8-.488.867-.59.832-.661.902 1.636 1.873-.872 1.112-.97 1.112-1.078 1.076-1.114 1.042-1.252.973-1.288.968-1.357.868-1.391.872-1.462.798-1.53.728-1.532.658-1.563.592-1.6.52-1.599.454-1.601.38-1.6.28h-.311l-.245-.07-.45-.21-.488-.206-.243-.07h-.279l-4.139 2.117-2.295-3.749-3.443 1.216 1.146 2.432-.21.52-.312.414-.382.315-.485.174-.487.036-.486-.107-.244-.137-.209-.174-.21-.21-.137-.276.347-1.978.28-1.912.137-1.907v-1.907l-.174-1.841-.348-1.807-.21-.902-.312-.868-.313-.868-.382-.831.697-2.015.627-2.08.556-2.122.522-2.151.451-2.184.419-2.259.382-2.254.346-2.293zM97.617 140.93l-4.07-3.403-3.166 3.574-.139.107-.174.067h-.382l-.417-.103-.453-.21-.382-.277-.313-.35-.172-.348-.036-.137.036-.174.73-2.672-24.657 4.234.034 75.02 55.332 12.598-.105-96.779-2.47.587-2.504.489-2.503.45-2.538.418-5.254.765-5.388.724 1.633 3.438.037.173v.21l-.174.454-.314.414-.416.381-.453.277-.522.178-.453.032-.21-.032-.137-.105zM64.022 58h55.261v68.18l-26.327 3.713-.488-3.02-3.338 1.286.208 2.5-25.318 4.234V58h.002z" clip-rule="evenodd" fill-rule="evenodd"/></svg>