<svg xmlns="http://www.w3.org/2000/svg" xmlns:xlink="http://www.w3.org/1999/xlink" width="42" height="42" viewBox="0 0 42 42">
  <defs>
    <path id="partager-a" d="M24.4444444,0 C21.3893889,0 18.8888889,2.50045556 18.8888889,5.55555556 C18.8888889,6.45026111 19.1165,7.30486111 19.4965556,8.05555556 L9.67011111,14.6180556 C8.65161111,13.4932056 7.18288889,12.7777778 5.55555556,12.7777778 C2.5005,12.7777778 0,15.2782333 0,18.3333556 C0,21.3884111 2.5005,23.8888556 5.55555556,23.8888556 C7.18527778,23.8888556 8.65144444,23.1763 9.67011111,22.0486333 L19.4965556,28.5937444 C19.1077778,29.3512444 18.8888889,30.2055222 18.8888889,31.1111333 C18.8888889,34.1662444 21.3893889,36.6666889 24.4444444,36.6666889 C27.4995,36.6666889 30,34.1662444 30,31.1111333 C30,28.0560222 27.4995,25.5555222 24.4444444,25.5555222 C23.1078333,25.5555222 21.8815,26.0460222 20.9201111,26.8403 L10.816,20.1215222 C11.0079444,19.5604667 11.1111111,18.9572444 11.1111111,18.3333556 C11.1111111,17.7038556 11.0112778,17.1105222 10.816,16.5451389 L20.8854444,9.80902778 C21.8521111,10.6218444 23.0905556,11.1111111 24.4444444,11.1111111 C27.4995,11.1111111 30,8.61065556 30,5.55555556 C30,2.50045556 27.4995,0 24.4444444,0 Z"/>
  </defs>
  <g transform="translate(6 3)">
    <mask id="partager-b">
      <use xlink:href="#partager-a"/>
    </mask>
    <use xlink:href="#partager-a"/>
    <g mask="url(#partager-b)">
      <rect width="42" height="42" transform="translate(-6 -3)"/>
    </g>
  </g>
</svg>
