<svg xmlns="http://www.w3.org/2000/svg" xmlns:xlink="http://www.w3.org/1999/xlink" width="42" height="42" viewBox="0 0 42 42">
  <defs>
    <path id="bougie-a" d="M16.5504792,37.4363529 C16.5504792,38.0118554 16.3479232,38.149211 15.8367518,38.0405436 L10.3886031,36.9973366 C10.2473004,36.9867165 10.1161255,36.919986 10.0243387,36.8120304 C9.93255189,36.7040747 9.88778884,36.5638746 9.90003453,36.4227034 L9.90003453,26.9555998 C9.90003453,26.7104462 10.7876298,26.6826273 10.9284628,26.7912947 C11.1892645,27.0112375 11.1023306,27.8049442 11.2761984,27.8049442 C11.5039653,27.8049442 12.1012013,26.8486711 12.3585257,26.8486711 C12.7059786,26.9053037 13.0488309,26.9872396 13.3843459,27.0938247 C13.4982294,27.0390564 13.4982294,26.6009094 13.640801,26.4905034 C14.0007915,26.3751431 14.3773387,26.319924 14.7552938,26.3270676 C15.2682039,26.3001181 16.2114369,26.2184002 16.2114369,26.2184002 C16.5817754,26.2184002 16.5539566,26.4652925 16.5539566,26.9851573 L16.5539566,37.4372222 L16.5504792,37.4363529 Z M9.90003453,16.8851748 C9.89734411,16.714946 9.96774889,16.551729 10.0934149,16.4368676 C10.2190808,16.3220063 10.387953,16.2665191 10.5572549,16.2844614 L15.6081156,16.2844614 C15.8446368,16.2207645 16.0972992,16.2828068 16.2774164,16.448811 C16.4575336,16.6148152 16.5399402,16.8615877 16.4957109,17.1025096 L16.5209217,25.4785926 C16.5209217,25.7506957 13.5521284,25.8350216 13.4391143,25.6428977 C13.3982147,25.3829535 13.3098073,25.1327604 13.1783126,24.9048287 C12.9484134,25.1644812 12.6780359,25.3852454 12.3776512,25.5585718 C12.0844769,25.4216507 11.7999605,25.2669086 11.5256988,25.095214 C11.5265331,25.4086811 11.4873868,25.7209749 11.4092073,26.0245376 C10.9376394,26.2482628 10.404412,26.3064554 9.89568783,26.189712 L9.89568783,16.8877828 L9.90003453,16.8851748 Z M10.6728771,9.96175761 C10.6728771,6.18534823 16.4974495,4.02417104 16.8903908,2.1081475 C17.2648658,2.53629925 17.4410443,3.1027225 17.3754821,3.66774198 C17.3754821,5.9671441 13.2122168,9.8261407 13.2122168,12.6167195 C13.2122168,12.9175108 13.2400356,13.000098 13.2400356,13.192222 C13.2400356,13.4643251 13.1270215,13.5190935 13.0661678,13.5190935 C12.3785205,13.5190935 10.6693997,12.2333409 10.6693997,9.96175761 L10.6728771,9.96175761 Z M18.4864976,18.8568361 C18.6217712,18.8742177 18.7556797,18.9009413 18.8872629,18.9368153 C19.1353174,18.9534804 19.3309623,19.1543725 19.341058,19.4027811 C19.2951147,19.5861164 19.3154365,19.7797897 19.3984344,19.9495954 C19.4919543,19.9725101 19.5904162,19.9409217 19.6531507,19.8678775 C20.7093978,19.1289392 20.9675916,20.44338 21.1962278,20.44338 C21.3953064,20.44338 21.3700956,19.5401366 21.6517615,19.5401366 C21.8821364,19.4584188 24.0772178,20.4711989 24.0772178,21.12755 C23.9791557,21.2341588 23.8743282,21.3343402 23.7633864,21.427472 C23.7373062,21.6204653 24.2789045,21.7021832 24.1911012,22.0577429 C24.1641517,22.2768164 23.6486336,22.5497889 23.7903359,22.6862751 C24.0929606,22.7157651 24.3981472,22.6688363 24.6779312,22.5497889 C24.8205028,22.5497889 24.8474523,22.7697317 24.8474523,22.8514496 C24.8474523,24.0554843 21.9108246,24.9604664 21.2509961,24.6857552 C21.1202883,24.4667673 21.0066481,24.2380337 20.9110845,24.0015853 C20.7360431,24.2335083 20.5350822,24.4446776 20.3121098,24.6309869 C19.9695902,24.6857552 19.4558107,24.2754271 19.3132391,24.3832252 C19.1706675,24.4910232 19.6531507,25.2595191 18.7142644,25.2595191 C18.4864976,25.2595191 18.4864976,25.0117574 18.4864976,24.8248495 L18.4864976,18.8568361 Z M18.4864976,15.270812 C18.5092556,14.8501904 18.1949187,14.4870506 17.7753781,14.4492864 L14.6909627,14.4492864 C14.4787612,14.4978768 14.2562552,14.4385291 14.09644,14.2907131 C13.9366247,14.142897 13.860126,13.9256897 13.89204,13.7103481 C13.89204,10.0712943 19.3984344,9.46797296 19.3984344,4.7066023 C19.3984344,2.62714299 18.0300945,1.22924559 16.4313798,0 C16.382696,0.14258753 16.382696,0.297298093 16.4313798,0.439885623 C16.4313798,2.65583118 7.84578606,3.80509757 7.84578606,8.92202796 C7.84578606,13.3808686 12.4663238,13.5747312 12.4663238,14.2580318 C12.4040262,14.3742851 12.2835045,14.4475304 12.151623,14.4492864 L8.61341255,14.4492864 C8.19352474,14.4866119 7.87869085,14.8498818 7.90142376,15.270812 L7.90142376,18.0074917 C7.55368809,18.1170284 7.13292793,17.6241131 6.90168371,17.6241131 C6.844814,17.9497751 6.75928632,18.2697766 6.646098,18.5803862 C6.47223016,18.6673201 3.25567521,19.7574714 2.96618527,19.7852903 C2.51065154,19.8670082 2.62366563,19.1019897 2.36807991,19.1019897 C2.13944371,19.1019897 2.13944371,19.8670082 1.56741853,19.8670082 C1.22750692,19.8670082 0.940624988,19.5662168 0.68503927,19.5662168 C0.511171435,19.5662168 1.05711644,20.1964877 1.05711644,20.3877423 C1.05711644,20.9093458 5.68434189e-14,21.0979924 5.68434189e-14,21.4544215 C5.68434189e-14,21.6456761 0.998870712,21.3718343 1.14144234,21.3718343 C1.65435245,21.3718343 1.5978454,21.9464675 1.79605474,21.9464675 C2.00194659,21.7165086 2.17486218,21.459037 2.30983419,21.181449 C2.6205464,21.1165826 2.9442072,21.1646693 3.22264032,21.3170659 C3.50952225,21.3170659 2.9957428,20.6624535 3.25219786,20.5520474 C4.4567351,20.0297431 5.69552598,19.5902846 6.95992944,19.2367373 C7.08365396,19.4265946 7.21743305,19.6097066 7.3606948,19.7852903 C7.58759232,19.894827 7.93011196,19.0185331 7.93011196,19.5662168 L7.93011196,26.2722992 C7.39320268,26.5208048 6.80913672,26.6509596 6.21751378,26.6539391 C5.99061626,26.6539391 6.10536903,25.9428197 5.96105873,25.9428197 C5.73329186,25.9428197 5.50204764,26.5461411 5.1638747,26.5461411 C4.85004326,26.5461411 4.39190151,25.8072028 4.07807007,25.8072028 C3.87986074,25.8072028 4.44840856,26.7365263 4.10501959,26.9008314 C2.79579479,27.5311023 0.714596802,28.1309464 0.714596802,30.1295571 C0.786763012,30.4719547 0.833832466,30.8191645 0.855429749,31.1684175 C0.653549014,31.3931084 0.480649783,31.6422352 0.340780957,31.9099638 C0.340780957,32.0716609 1.19881872,32.0186312 1.37181722,32.2655235 C1.4119341,32.5339747 1.51995923,32.7877291 1.68564866,33.0027231 C1.82735095,33.0027231 2.1968201,32.538496 2.51239022,32.7019318 C3.51126093,33.2783036 5.25080862,33.9059665 6.04973132,34.3180333 C6.14856023,34.563711 6.21518317,34.8211443 6.24794065,35.0839211 C6.47483818,35.1925885 6.93211058,34.5101572 7.64670739,34.8917971 C7.83172846,34.9987493 7.94170106,35.1999187 7.93185064,35.4134006 L7.93185064,37.6293462 C7.91025739,37.762713 7.94366527,37.8991358 8.02443875,38.0074345 C8.10521222,38.1157332 8.22644719,38.186651 8.36043485,38.2039794 L16.8608333,39.87398 C17.1533144,39.9264485 17.4484697,39.9627261 17.7449512,39.9826474 C18.0613907,39.9826474 18.3456646,39.9296177 18.3456646,39.3271656 L18.3726141,34.181547 C18.3694905,34.1481282 18.3800131,34.1148663 18.4017891,34.0893245 C18.4235651,34.0637827 18.454744,34.0481316 18.4882362,34.0459301 C19.0280959,34.0459301 18.94377,35.4368728 19.0585227,35.4368728 C19.2836816,35.4368728 19.4279919,34.5084186 19.7157432,34.5084186 C20.1139005,34.5084186 20.3720942,34.8631089 20.5416154,34.7813911 C20.5753543,34.5133799 20.5455743,34.2411904 20.4546815,33.9868151 C20.4546815,33.7390534 21.1953584,33.6312553 22.1064259,33.3043838 C22.6612977,33.0678855 23.2339344,32.8754564 23.8190241,32.7288813 C24.0163641,32.7288813 24.1615437,33.2504848 24.3319342,33.2504848 C24.4736365,33.2504848 24.505802,32.5663148 24.8178948,32.5663148 C25.1297615,32.6943709 25.4552809,32.7862514 25.7880773,32.8401567 C25.9010914,32.7584388 25.500326,32.238574 25.8167655,32.0203698 C26.1137335,31.8779005 26.3757834,31.6719406 26.584392,31.4170485 C26.2196228,31.3392452 25.8471591,31.3033697 25.4742459,31.3101197 C25.2734285,31.254482 25.046531,30.6502913 24.900482,30.6502913 C24.7335689,30.6502913 24.7335689,31.2588287 24.4736365,31.4457367 C24.2450003,31.6074337 23.6764524,30.8702341 23.4199974,30.8702341 C23.440793,31.2040406 23.4991165,31.5344433 23.5938652,31.8551954 C23.5938652,32.289865 20.8293666,33.1426867 20.4555508,33.1426867 C19.8826563,33.1426867 19.8548374,32.4593861 19.7400847,32.4593861 C19.5714329,32.4593861 19.597513,33.2800423 18.8872629,33.2800423 C18.7882845,33.3027144 18.6843873,33.278228 18.60595,33.2137427 C18.5275128,33.1492575 18.4833954,33.0520572 18.4864976,32.9505628 L18.4864976,26.3827053 C18.4653967,26.2581388 18.5011493,26.1306661 18.5839516,26.0352415 C18.6667538,25.9398169 18.7879154,25.8864557 18.9142124,25.88979 C19.4262532,25.88979 19.4262532,26.8756206 19.597513,26.8756206 C19.9130832,26.8756206 20.084343,25.8628405 20.681579,25.8628405 C21.1388514,25.8628405 21.5091899,26.4652925 21.7960718,26.4652925 C21.9942811,26.4652925 21.4552908,25.835891 21.4552908,25.5350996 C21.4552908,25.2343082 24.2789045,25.3429756 25.3621011,23.5095393 C25.5565438,23.0633836 25.7003048,22.5968165 25.7906853,22.1185966 C25.9575984,21.8447548 26.587,21.8977845 26.587,21.7073992 C26.3892526,21.5836505 26.1781013,21.4827411 25.9575984,21.4066079 C25.6194255,21.2153532 25.7333089,20.2303919 25.5620491,20.2303919 C25.3012474,20.2303919 25.049139,20.9136925 24.7909453,20.6129012 C23.8397962,19.8089619 22.7604365,19.1703971 21.5978625,18.7238272 C21.281423,18.6151598 21.8230213,17.7101777 21.6847964,17.6293291 C21.5465715,17.5484806 21.1692783,18.1778822 20.6268106,18.0639987 C20.1982264,17.9822808 20.3990437,17.2424732 20.1704075,17.2424732 C20.0565241,17.2424732 19.6262012,18.2856802 19.3149778,18.1987463 C18.9733275,18.1161591 18.4882362,18.0335719 18.4882362,18.0335719 L18.4882362,15.2699426 L18.4864976,15.270812 Z M7.95880015,33.0583608 C7.94607443,33.3373498 7.72546516,33.5620791 7.44675938,33.5799643 C6.98948697,33.5799643 6.70260504,32.7028011 6.58872161,32.7314893 C6.44614999,32.7575695 6.6174098,33.4686889 6.44614999,33.5799643 C5.26364062,33.2411314 4.12531616,32.7637413 3.05485786,32.1577254 C2.99748056,31.9424089 2.99748056,31.7158216 3.05485786,31.500505 C2.85418813,31.3866987 2.62976067,31.3212159 2.39937612,31.3092504 C2.41620263,31.0710393 2.406874,30.8317016 2.37155727,30.5955229 C2.22637763,30.5146744 1.91428486,31.0893076 1.71346751,30.8137271 C1.62125006,30.6480851 1.58210518,30.4581262 1.60132276,30.2695207 C1.60132276,28.5969122 3.45562322,27.9162196 4.71007965,27.5032835 C5.22038175,27.3398477 5.05086061,27.9692493 5.22038175,27.9961988 C5.38189797,27.9095691 5.53549202,27.8089185 5.67939283,27.6954074 C5.99102202,27.8086909 6.31826778,27.8732017 6.64957535,27.8866621 C6.76345878,27.8049442 6.30966373,27.3937468 6.44962734,27.2311803 C6.62349518,27.0929554 7.96227751,26.8747513 7.96227751,27.1199049 L7.96227751,33.0583608 L7.95880015,33.0583608 Z"/>
  </defs>
  <g transform="translate(8 1)">
    <mask id="bougie-b" fill="#fff">
      <use xlink:href="#bougie-a"/>
    </mask>
    <use xlink:href="#bougie-a"/>
    <g mask="url(#bougie-b)">
      <rect width="42" height="42" transform="translate(-8 -1)"/>
    </g>
  </g>
</svg>
