<svg xmlns="http://www.w3.org/2000/svg" xmlns:xlink="http://www.w3.org/1999/xlink" width="42" height="42" viewBox="0 0 42 42">
  <defs>
    <path id="mail-a" d="M36.6695808,22.4609137 L25.4344116,13.3052839 L36.6695808,3.96733005 L36.6695808,22.4609137 Z M4.33676089,23.0620907 L15.4287221,14.0225352 L19.6422575,17.5244732 C19.7460555,17.6109814 19.8731665,17.6536879 20.0002775,17.6536879 C20.1273885,17.6536879 20.2544995,17.6109814 20.3577425,17.5244732 L24.5712779,14.0225352 L35.6637942,23.0620907 L4.33676089,23.0620907 Z M3.33097429,3.96733005 L14.5661435,13.3058315 L3.33097429,22.4614612 L3.33097429,3.96733005 Z M35.6871071,3.35191755 L20.0002775,16.3900117 L4.31344796,3.35191755 L35.6871071,3.35191755 Z M39.4449301,0 L36.6695808,0 L3.33097429,0 L0.555069869,0 C0.248671302,0 0,0.244741448 0,0.547520018 L0,3.28512011 L0,23.0785163 L0,25.8161163 C0,26.1188949 0.248671302,26.3636364 0.555069869,26.3636364 L3.33097429,26.3636364 L36.6695808,26.3636364 L39.4449301,26.3636364 C39.7513287,26.3636364 40,26.1188949 40,25.8161163 L40,23.0785163 L40,3.28512011 L40,0.547520018 C40,0.244741448 39.7513287,0 39.4449301,0 Z"/>
  </defs>
  <g transform="translate(1 8)">
    <mask id="mail-b">
      <use xlink:href="#mail-a"/>
    </mask>
    <use xlink:href="#mail-a"/>
    <g mask="url(#mail-b)">
      <rect width="42" height="42" transform="translate(-1 -8)"/>
    </g>
  </g>
</svg>
